<?xml version="1.0" encoding="utf-8"?>
<!-- Generator: Adobe Illustrator 19.2.0, SVG Export Plug-In . SVG Version: 6.00 Build 0)  -->
<svg version="1.1" id="Layer_1" xmlns="http://www.w3.org/2000/svg" xmlns:xlink="http://www.w3.org/1999/xlink" x="0px" y="0px"
	 viewBox="0 0 1224 500" style="enable-background:new 0 0 1224 500;" xml:space="preserve">
<style type="text/css">
	.st0{fill:#AA1F24;}
	.st1{fill:#0A3352;}
</style>
<g>
	<path class="st0" d="M64.8,494.4H48.9l-18.2-53.6h-0.3l-10.7,53.6h-16l16.1-80.6h15.9l18.2,53.5h0.3l10.7-53.5h15.9L64.8,494.4z"/>
	<path class="st0" d="M134.7,458.9h-30.5l-4.6,23h35.8l-2.5,12.5H81.2l16.1-80.6h51.6l-2.5,12.5h-35.7l-4,20.3h30.5L134.7,458.9z"/>
	<path class="st0" d="M209,467.1l0.3,0.1l18.7-53.3h15.5l-30.2,80.6h-14.8l-5-51.3l-0.3-0.1l-21.4,51.4H157l-4.4-80.6h15.6l1.7,53.2
		l0.3,0.1l22-53.3h11.7L209,467.1z"/>
	<path class="st0" d="M323.3,458.9h-30.5l-4.6,23H324l-2.5,12.5h-51.7l16.1-80.6h51.6l-2.5,12.5h-35.7l-4,20.3h30.5L323.3,458.9z"/>
	<path class="st0" d="M394.2,494.4h-15.9l-18.2-53.6h-0.3l-10.7,53.6h-15.9l16.1-80.6h15.9l18.2,53.5h0.3l10.7-53.5h15.9
		L394.2,494.4z"/>
	<path class="st0" d="M470.7,483.3c-3,3.2-7,6-12.2,8.5s-11.4,3.7-18.7,3.7c-8.6,0-15.3-3.1-20.3-9.3c-4.9-6.2-6.4-14.1-4.5-23.7
		l3.4-16.8c2.1-10.4,6.4-18.5,13.1-24.3s14.5-8.7,23.5-8.7c8.7,0,15.1,2.4,19.3,7.2c4.1,4.8,5.8,11.1,5,18.8l-0.2,0.3H464
		c0.2-4.4-0.5-7.8-2.1-10.3c-1.6-2.4-4.6-3.6-8.9-3.6c-4.1,0-7.9,1.9-11.5,5.8s-6,8.8-7.2,14.6l-3.4,16.9c-1.3,6.5-1,11.5,1.1,15.2
		c2,3.6,5.5,5.4,10.3,5.4c3.1,0,5.8-0.4,8.1-1.2s4-1.7,5.3-2.8l2.9-14.6H446l2.2-11.2h28.5L470.7,483.3z"/>
	<path class="st0" d="M502.2,481.9h33l-2.5,12.5h-48.9l16.1-80.6h15.9L502.2,481.9z"/>
	<path class="st0" d="M588.6,477h-25.2l-8.5,17.4h-16l41.7-80.6h16.3l9.4,80.6h-16L588.6,477z M569.6,464.3h17.9l-2.7-30.2l-0.3-0.1
		L569.6,464.3z"/>
	<path class="st0" d="M676.9,494.4H661l-18.2-53.6h-0.3l-10.7,53.6h-15.9l16.1-80.6h15.9l18.2,53.5h0.3l10.7-53.5H693L676.9,494.4z"
		/>
	<path class="st0" d="M693.2,494.4l16.1-80.6h24.1c8.7,0,15.8,3.3,21.4,9.9s7.4,14.7,5.5,24.3l-2.7,13.3
		c-2.1,10.6-6.4,18.8-12.7,24.5s-14.1,8.6-23.4,8.6L693.2,494.4L693.2,494.4z M722.8,426.2l-11.1,55.7h11.4c4.8,0,8.7-1.8,11.8-5.5
		s5.3-8.7,6.6-15.1l2.7-13.4c1.3-6.5,0.6-11.8-2-15.7c-2.7-3.9-6.7-5.9-12.1-5.9h-7.3V426.2z"/>
	<path class="st0" d="M858.7,467.1l0.3,0.1l18.7-53.3h15.5L863,494.4h-14.8l-5-51.3l-0.3-0.1l-21.4,51.4h-14.8l-4.4-80.6H818
		l1.7,53.2l0.3,0.1l22-53.3h11.7L858.7,467.1z"/>
	<path class="st0" d="M951.5,494.4h-15.9l6.7-33.5H913l-6.7,33.5h-15.9l16.1-80.6h15.9l-6.9,34.6h29.3l6.9-34.6h15.9L951.5,494.4z"
		/>
	<path class="st0" d="M1021.4,458.9h-30.5l-4.6,23h35.8l-2.5,12.5h-51.7l16.1-80.6h51.6l-2.5,12.5h-35.7l-4,20.3h30.5L1021.4,458.9z
		"/>
	<path class="st0" d="M1084.8,458.9h-30.5l-4.6,23h35.8l-2.5,12.5h-51.7l16.1-80.6h51.6l-2.5,12.5h-35.7l-4,20.3h30.5L1084.8,458.9z
		"/>
	<path class="st0" d="M1113,481.9h33l-2.5,12.5h-48.9l16.1-80.6h15.9L1113,481.9z"/>
	<path class="st0" d="M1198.4,474.8c0.7-3.6,0.2-6.4-1.6-8.3c-1.8-1.9-5.2-3.9-10.4-6c-8.4-2.9-14.6-6.5-18.5-10.7
		s-5.2-9.7-3.8-16.4c1.3-6.7,4.7-11.8,10.2-15.4s12.1-5.4,19.8-5.4c8.2,0,14.7,2.2,19.3,6.6s6.1,10.4,4.5,18l-0.2,0.3h-15.4
		c0.7-3.8,0.1-6.8-1.8-9.1c-2-2.3-4.9-3.4-8.8-3.4c-2.7,0-5.2,0.8-7.4,2.4c-2.3,1.6-3.6,3.6-4.1,5.9c-0.7,3.6-0.2,6.2,1.7,7.9
		c1.8,1.7,5.9,3.7,12.2,6.2c7.9,2.8,13.7,6.3,17.2,10.5s4.6,9.8,3.2,16.8s-4.8,12.2-10.3,15.6c-5.4,3.5-12.1,5.2-20.1,5.2
		c-8.1,0-14.9-2-20.4-6c-5.6-4-7.4-10.2-5.5-18.7l0.1-0.3h15.5c-1,4.7-0.1,8,2.6,9.8s6.1,2.7,10.3,2.7c2.7,0,5.2-0.8,7.6-2.3
		C1196.5,479.2,1197.9,477.2,1198.4,474.8z"/>
</g>
<g>
	<g>
		<g>
			<path class="st1" d="M955.5,21.5L921.2,125L881.3,21.5h-95.9L747.3,125l-36-103.5H576.4l110.2,317.3h101.8L834,213.2l49.4,125.7
				H981l87.3-251.4h0.2l21.8-66L955.5,21.5L955.5,21.5z M502,258.5v-39.1h129.4l-28-79.4H502v-39.1h87.6l-28-79.4h-93.8l0,0H335
				v104.6h-0.8L261.8,21.6h-99.2v317.2h138.7v-99h0.8l66.8,99h304.5l-28.3-80.3H502z"/>
		</g>
	</g>
	<path class="st0" d="M633.3,184.7l0.9,2.5c126.4,7.6,375.9,25.5,312,45.6c-15.4,4.9-51.2,10.2-98.1,16l-28.2,3.4
		c-46.8,5.5-101.4,11.3-157,17.4l-13.2,1.4c-122.2,13.3-246,28-297.3,43.1l16.6,24.6h304.5l13.4,0.2h101.5l2.2-5.8
		c-38-7.4-64.4-11.1-66.5-17.7c-3.4-10.8,33.7-20.3,83.5-29.2l51.8-8.6c57.5-9,118.8-17.6,152.2-26.5l8.6-24.7
		C966,206.7,790,188.2,633.3,184.7z"/>
</g>
</svg>
