<?xml version="1.0" encoding="utf-8"?>
<!-- Generator: Adobe Illustrator 18.0.0, SVG Export Plug-In . SVG Version: 6.00 Build 0)  -->
<!DOCTYPE svg PUBLIC "-//W3C//DTD SVG 1.1//EN" "http://www.w3.org/Graphics/SVG/1.1/DTD/svg11.dtd">
<svg version="1.1" id="Layer_1" xmlns="http://www.w3.org/2000/svg" xmlns:xlink="http://www.w3.org/1999/xlink" x="0px" y="0px"
	 viewBox="0 0 1367.9 594" enable-background="new 0 0 1367.9 594" xml:space="preserve">
<g>
	<path fill="#AA1F24" d="M131.8,541.4h-15.9l-18.2-53.6h-0.3l-10.7,53.6H70.7l16.1-80.6h15.9l18.2,53.5h0.3l10.7-53.5h15.9
		L131.8,541.4z"/>
	<path fill="#AA1F24" d="M201.7,505.9h-30.5l-4.6,23h35.8l-2.5,12.5h-51.7l16.1-80.6h51.6l-2.5,12.5h-35.7l-4,20.3h30.5L201.7,505.9
		z"/>
	<path fill="#AA1F24" d="M276,514.1l0.3,0.1l18.7-53.3h15.5l-30.2,80.6h-14.8l-5-51.3l-0.3-0.1l-21.4,51.4H224l-4.4-80.6h15.6
		l1.7,53.2l0.3,0.1l22-53.3h11.7L276,514.1z"/>
	<path fill="#AA1F24" d="M390.3,505.9h-30.5l-4.6,23H391l-2.5,12.5h-51.7l16.1-80.6h51.6l-2.5,12.5h-35.7l-4,20.3h30.5L390.3,505.9z
		"/>
	<path fill="#AA1F24" d="M461.2,541.4h-15.9l-18.2-53.6h-0.3l-10.7,53.6h-15.9l16.1-80.6h15.9l18.2,53.5h0.3l10.7-53.5h15.9
		L461.2,541.4z"/>
	<path fill="#AA1F24" d="M537.7,530.3c-3,3.2-7,6-12.2,8.5c-5.2,2.5-11.4,3.7-18.7,3.7c-8.6,0-15.3-3.1-20.3-9.3
		c-4.9-6.2-6.4-14.1-4.5-23.7l3.4-16.8c2.1-10.4,6.4-18.5,13.1-24.3c6.7-5.8,14.5-8.7,23.5-8.7c8.7,0,15.1,2.4,19.3,7.2
		c4.1,4.8,5.8,11.1,5,18.8l-0.2,0.3h-15.1c0.2-4.4-0.5-7.8-2.1-10.3c-1.6-2.4-4.6-3.6-8.9-3.6c-4.1,0-7.9,1.9-11.5,5.8
		s-6,8.8-7.2,14.6l-3.4,16.9c-1.3,6.5-1,11.5,1.1,15.2c2,3.6,5.5,5.4,10.3,5.4c3.1,0,5.8-0.4,8.1-1.2c2.3-0.8,4-1.7,5.3-2.8
		l2.9-14.6H513l2.2-11.2h28.5L537.7,530.3z"/>
	<path fill="#AA1F24" d="M569.2,528.9h33l-2.5,12.5h-48.9l16.1-80.6h15.9L569.2,528.9z"/>
	<path fill="#AA1F24" d="M655.6,524h-25.2l-8.5,17.4h-16l41.7-80.6h16.3l9.4,80.6h-16L655.6,524z M636.6,511.3h17.9l-2.7-30.2
		l-0.3-0.1L636.6,511.3z"/>
	<path fill="#AA1F24" d="M743.9,541.4h-15.9l-18.2-53.6h-0.3l-10.7,53.6h-15.9l16.1-80.6h15.9l18.2,53.5h0.3l10.7-53.5H760
		L743.9,541.4z"/>
	<path fill="#AA1F24" d="M760.2,541.4l16.1-80.6h24.1c8.7,0,15.8,3.3,21.4,9.9s7.4,14.7,5.5,24.3l-2.7,13.3
		c-2.1,10.6-6.4,18.8-12.7,24.5s-14.1,8.6-23.4,8.6H760.2z M789.8,473.2l-11.1,55.7h11.4c4.8,0,8.7-1.8,11.8-5.5s5.3-8.7,6.6-15.1
		l2.7-13.4c1.3-6.5,0.6-11.8-2-15.7c-2.7-3.9-6.7-5.9-12.1-5.9H789.8z"/>
	<path fill="#AA1F24" d="M925.7,514.1l0.3,0.1l18.7-53.3h15.5L930,541.4h-14.8l-5-51.3l-0.3-0.1l-21.4,51.4h-14.8l-4.4-80.6H885
		l1.7,53.2l0.3,0.1l22-53.3h11.7L925.7,514.1z"/>
	<path fill="#AA1F24" d="M1018.5,541.4h-15.9l6.7-33.5H980l-6.7,33.5h-15.9l16.1-80.6h15.9l-6.9,34.6h29.3l6.9-34.6h15.9
		L1018.5,541.4z"/>
	<path fill="#AA1F24" d="M1088.4,505.9h-30.5l-4.6,23h35.8l-2.5,12.5h-51.7l16.1-80.6h51.6l-2.5,12.5h-35.7l-4,20.3h30.5
		L1088.4,505.9z"/>
	<path fill="#AA1F24" d="M1151.8,505.9h-30.5l-4.6,23h35.8l-2.5,12.5h-51.7l16.1-80.6h51.6l-2.5,12.5h-35.7l-4,20.3h30.5
		L1151.8,505.9z"/>
	<path fill="#AA1F24" d="M1180,528.9h33l-2.5,12.5h-48.9l16.1-80.6h15.9L1180,528.9z"/>
	<path fill="#AA1F24" d="M1265.4,521.8c0.7-3.6,0.2-6.4-1.6-8.3c-1.8-1.9-5.2-3.9-10.4-6c-8.4-2.9-14.6-6.5-18.5-10.7
		c-3.9-4.2-5.2-9.7-3.8-16.4c1.3-6.7,4.7-11.8,10.2-15.4c5.5-3.6,12.1-5.4,19.8-5.4c8.2,0,14.7,2.2,19.3,6.6s6.1,10.4,4.5,18
		l-0.2,0.3h-15.4c0.7-3.8,0.1-6.8-1.8-9.1c-2-2.3-4.9-3.4-8.8-3.4c-2.7,0-5.2,0.8-7.4,2.4c-2.3,1.6-3.6,3.6-4.1,5.9
		c-0.7,3.6-0.2,6.2,1.7,7.9c1.8,1.7,5.9,3.7,12.2,6.2c7.9,2.8,13.7,6.3,17.2,10.5c3.5,4.2,4.6,9.8,3.2,16.8
		c-1.4,7-4.8,12.2-10.3,15.6c-5.4,3.5-12.1,5.2-20.1,5.2c-8.1,0-14.9-2-20.4-6c-5.6-4-7.4-10.2-5.5-18.7l0.1-0.3h15.5
		c-1,4.7-0.1,8,2.6,9.8c2.7,1.8,6.1,2.7,10.3,2.7c2.7,0,5.2-0.8,7.6-2.3C1263.5,526.2,1264.9,524.2,1265.4,521.8z"/>
</g>
<g>
	<g>
		<g>
			<path fill="#0A3352" d="M1022.5,68.5L988.2,172L948.3,68.5h-95.9L814.3,172L778.3,68.5H643.4l110.2,317.3h101.8L901,260.2
				l49.4,125.7h97.6l87.3-251.4h0.2l21.8-66H1022.5z M569,305.5v-39.1h129.4l-28-79.4H569v-39.1h87.6l-28-79.4h-93.8v0H402v104.6
				h-0.8L328.8,68.6h-99.2v317.2h138.7v-99h0.8l66.8,99h304.5l-28.3-80.3H569z"/>
		</g>
	</g>
	<path fill="#AA1F24" d="M700.3,231.7l0.9,2.5c126.4,7.6,375.9,25.5,312,45.6c-15.4,4.9-51.2,10.2-98.1,16l-28.2,3.4
		c-46.8,5.5-101.4,11.3-157,17.4l-13.2,1.4c-122.2,13.3-246,28-297.3,43.1l16.6,24.6h304.5l13.4,0.2h101.5l2.2-5.8
		c-38-7.4-64.4-11.1-66.5-17.7c-3.4-10.8,33.7-20.3,83.5-29.2l51.8-8.6c57.5-9,118.8-17.6,152.2-26.5l8.6-24.7
		C1033,253.7,857,235.2,700.3,231.7z"/>
</g>
</svg>
