<!-- Generator: Adobe Illustrator 19.1.0, SVG Export Plug-In . SVG Version: 6.00 Build 0)  -->
<svg version="1.1" id="Layer_1" xmlns="http://www.w3.org/2000/svg" xmlns:xlink="http://www.w3.org/1999/xlink" x="0px" y="0px"
	 viewBox="0 0 129.1 123" style="enable-background:new 0 0 129.1 123;" xml:space="preserve">
<style type="text/css">
	.st0-wheel{fill:#FFFFFF;}
</style>
<path class="st0-wheel" d="M119.5,62c0-29.7-23.6-53.9-53.1-54.9c2.4,1,4.1,3.4,4.1,6.2v7.2c0,3.7-4,6.8-7.7,6.8c-3.9,0-5.6-2.6-8.5-6.7
	c-0.2-0.3-0.8-1.3-0.8-2.4v-5c0-2.4,1.2-4.4,3.1-5.7C30,11.5,9.6,34.4,9.6,62c0,14.7,5.8,28,15.2,37.9C23.7,96.5,23,93,23,89.3
	c0-9.4,4-17.8,10.3-23.8l-4.8-15.3c-1.1-2.2-1.2-5.7,0.9-7.7c1.5-1.5,13.3-10.6,13.3-10.6c2.8-2.5,5.2-4.9,8.7-4.9l4,0
	c0.8,0,1.2,0.4,1.5,0.6c1.5,1.4,3.4,2.2,5.3,2.2c1.8,0,3.7-0.5,5.2-1.3c0.9-0.6,5.6-0.4,5.6,3.6c0,0-2.2,16.5-3.7,27.3
	c5,2.3,9.4,5.8,12.6,10.2c6.2-0.4,12.8-0.8,14.8-0.9c5.5-0.4,8.6,4.1,8.5,8.6c-0.3,6.3-0.8,16.1-1.3,22.8
	C113.5,90.4,119.5,76.9,119.5,62z M55.8,63.9c-14,0-25.4,11.4-25.4,25.4c0,14,11.4,25.4,25.4,25.4c14,0,25.4-11.4,25.4-25.4
	C81.2,75.3,69.8,63.9,55.8,63.9z M44.9,58.5l1.8-16.1l-10,5.5c0.4,2.4,1.5,8.4,2.4,13.4C40.9,60.1,42.9,59.2,44.9,58.5z M88.3,85.7
	c0.1,1.2,0.2,2.4,0.2,3.6c0,11-5.4,20.7-13.7,26.6c7.3-1.4,14.1-4.2,20-8.1c-0.2-9.1-0.4-15-0.8-22.5L88.3,85.7z"/>
</svg>
